# xmcd
#
# Track frame offsets: 
#        150
#        19600
#        32267
#        65821
#        76283
#        88438
#        111526
#        124142
#        135775
#        158857
#        171248
#        185293
#        195504
#
# Disc length: 2772 seconds
#
# Revision: 3
# Processed by: cddbd v1.5.2PL0 Copyright (c) Steve Scherf et al.
# Submitted via: ExactAudioCopyFreeDBPlugin 1.0
#
DISCID=a80ad20d
DTITLE=Various Artist - The Great Voice of Soul:  45 Original Soul Cl
DTITLE=assics
DYEAR=1998
DGENRE=Soul
TTITLE0=Curtis Mayfield - Move On Up
TTITLE1=Lee Dorsey - Working in a Coalmine
TTITLE2=Funkadelic - One Nation Under a Groove
TTITLE3=Gene Chandler - Duke of Earl
TTITLE4=Barbara Lewis - Hello Stranger
TTITLE5=Bobby Womack - That's the Way I Feel About Cha
TTITLE6=Bob and Earl - Harlem Shuffle
TTITLE7=Maxine Brown - Oh No Not My Baby
TTITLE8=The Chi-Lites - Have You Seen Her
TTITLE9=Irma Thomas - Ruler of My Heart
TTITLE10=Aaron Neville - Tell it Like it Is
TTITLE11=Betty Everett - You're No Good
TTITLE12=Inez and Charlie Foxx - Mockingbird
EXTD=ID3G: 42
EXTT0=
EXTT1=
EXTT2=
EXTT3=
EXTT4=
EXTT5=
EXTT6=
EXTT7=
EXTT8=
EXTT9=
EXTT10=
EXTT11=
EXTT12=
PLAYORDER=
